<svg width="160" height="160" viewBox="0 0 160 160" fill="none" xmlns="http://www.w3.org/2000/svg">
  <defs>
    <linearGradient id="pgBg" x1="20" y1="20" x2="140" y2="140" gradientUnits="userSpaceOnUse">
      <stop stop-color="#0E2A4E"/>
      <stop offset="1" stop-color="#1E5AA6"/>
    </linearGradient>
  </defs>

  <rect x="16" y="16" width="128" height="128" rx="24" fill="url(#pgBg)"/>
  <circle cx="80" cy="80" r="48" fill="#3B82C4" stroke="#E8F1FF" stroke-width="6"/>

  <path d="M80 32V128M32 80H128" stroke="#0B3D73" stroke-width="5" stroke-linecap="round"/>

  <g transform="translate(56 56)">
    <path d="M-10 -10L10 10M10 -10L-10 10" stroke="#F5C64B" stroke-width="6" stroke-linecap="round"/>
  </g>

  <g transform="translate(104 56)">
    <circle r="8" fill="#F5C64B"/>
    <ellipse cx="12" cy="0" rx="8" ry="6" fill="#F5C64B"/>
    <ellipse cx="0" cy="12" rx="8" ry="6" fill="#F5C64B"/>
  </g>

  <g transform="translate(56 104)" stroke="#F5C64B" stroke-width="4" stroke-linecap="round">
    <path d="M-10 8L0 -8L10 8"/>
    <path d="M2 8L12 -8L22 8"/>
  </g>

  <g transform="translate(104 104)">
    <path d="M0 -10C8 -10 12 -4 12 2C12 10 6 14 -2 14" stroke="#F5C64B" stroke-width="6" stroke-linecap="round"/>
    <circle cx="2" cy="22" r="3.5" fill="#F5C64B"/>
  </g>
</svg>
